# xmcd CD database file
#
# Track frame offsets:
#	150
#	33510
#	49875
#	86925
#	102360
#	139990
#	165265
#	191000
#
# Disc length: 2766 seconds
#
# Revision: 0
# Processed by: cddbd v1.5.2PL0 Copyright (c) Steve Scherf et al.
# Submitted via: CDex 1.70beta2
#
DISCID=6c0acc08
DTITLE=Schiller - Die Einlassmusik 7 (Klangwelten - Tour 2011)
DYEAR=2011
DGENRE=New Age
TTITLE0=Teil I
TTITLE1=Teil II
TTITLE2=Teil III
TTITLE3=Teil IV
TTITLE4=Teil V
TTITLE5=Teil VI
TTITLE6=Teil VII
TTITLE7=Teil VIII
EXTD=YEAR: 2011
EXTT0=
EXTT1=
EXTT2=
EXTT3=
EXTT4=
EXTT5=
EXTT6=
EXTT7=
PLAYORDER=
